<svg id="SvgjsSvg1031" width="288" height="288" xmlns="http://www.w3.org/2000/svg" version="1.1" xmlns:xlink="http://www.w3.org/1999/xlink" xmlns:svgjs="http://svgjs.com/svgjs"><defs id="SvgjsDefs1032"></defs><g id="SvgjsG1033"><svg xmlns="http://www.w3.org/2000/svg" width="288" height="288" version="1.0" viewBox="0 0 1138 909"><g transform="matrix(.1 0 0 -.1 0 909)" fill="#4141aa" class="color000 svgShape"><path d="M1450 8490l0-270 4270 0 4270 0 0 270 0 270-4270 0-4270 0 0-270zM4015 5460l-1700-1700 193-192 192-193 1375 1375 1375 1375 0-2953 0-2952 270 0 270 0 0 2952 0 2953 1375-1375 1375-1375 192 193 193 192-1700 1700c-935 935-1702 1700-1705 1700-3 0-770-765-1705-1700z" fill="#4141aa" class="color000 svgShape"></path></g></svg></g></svg>