<svg id="SvgjsSvg1001" width="288" height="288" xmlns="http://www.w3.org/2000/svg" version="1.1" xmlns:xlink="http://www.w3.org/1999/xlink" xmlns:svgjs="http://svgjs.com/svgjs"><defs id="SvgjsDefs1002"></defs><g id="SvgjsG1008" transform="matrix(0.9167,0,0,0.9167,12.131251571846008,12.28997816734315)"><svg xmlns="http://www.w3.org/2000/svg" width="288" height="288" version="1.0" viewBox="0 0 1058 1004"><g transform="matrix(.1 0 0 -.1 0 1004)" fill="#f3b378" class="color000 svgShape"><path d="M1080 8875l0-535 4270 0 4270 0 0 535 0 535-4270 0-4270 0 0-535zM3615 5550l-1700-1700 383-382 382-383 1050 1050 1050 1050 0-2408 0-2407 540 0 540 0 0 2407 0 2408 1050-1050 1050-1050 382 383 383 382-1700 1700c-935 935-1702 1700-1705 1700-3 0-770-765-1705-1700z" fill="#f3b378" class="color000 svgShape"></path></g></svg></g></svg>